<?xml version="1.0" standalone="no"?>
<!DOCTYPE svg PUBLIC "-//W3C//DTD SVG 20010904//EN"
 "http://www.w3.org/TR/2001/REC-SVG-20010904/DTD/svg10.dtd">
<svg version="1.0" xmlns="http://www.w3.org/2000/svg"
 width="720.000000pt" height="720.000000pt" viewBox="0 0 720.000000 720.000000"
 preserveAspectRatio="xMidYMid meet">
<metadata>
Created by potrace 1.11, written by Peter Selinger 2001-2013
</metadata>
<g transform="translate(0.000000,720.000000) scale(0.100000,-0.100000)"
fill="#000000" stroke="none">
<path d="M670 5713 c-366 -3 -420 -7 -420 -35 0 -5 -12 -19 -26 -32 l-27 -22
13 -320 c27 -709 24 -2496 -7 -3440 l-6 -200 37 -37 37 -37 297 0 297 0 43 42
c24 22 41 47 38 54 -2 6 -8 163 -12 348 -4 185 -11 339 -16 342 -4 3 -8 206
-8 451 l0 445 362 -3 c276 -3 362 -7 366 -17 2 -6 18 -12 35 -12 41 0 148 -25
156 -37 3 -4 20 -14 36 -22 17 -7 37 -19 45 -26 46 -41 106 -101 115 -116 6
-9 28 -43 50 -75 22 -33 47 -73 55 -89 8 -17 19 -37 26 -45 6 -8 20 -37 30
-65 10 -27 21 -52 25 -55 3 -3 14 -30 24 -60 10 -30 21 -57 25 -60 4 -3 15
-32 25 -65 10 -33 22 -65 27 -71 7 -10 35 -86 79 -219 11 -33 26 -74 34 -91 8
-18 20 -55 27 -83 6 -28 14 -51 18 -51 4 0 15 -30 25 -67 10 -38 21 -70 25
-73 4 -3 15 -38 25 -77 10 -40 22 -73 27 -73 4 0 8 -6 8 -13 0 -7 7 -37 15
-65 l16 -52 335 0 c368 0 345 -4 384 65 17 31 20 47 14 96 -4 35 -3 59 3 59 5
0 15 33 22 74 6 41 20 99 31 128 10 29 24 80 31 113 7 33 15 62 18 65 4 3 15
39 25 80 10 41 22 80 26 85 4 6 15 44 25 85 10 41 21 77 25 80 3 3 17 46 29
95 13 50 27 95 31 100 4 6 15 42 25 80 10 39 21 72 25 75 3 3 15 37 25 75 10
39 22 77 26 85 5 8 15 42 25 75 9 33 20 65 24 70 4 6 16 42 25 80 10 39 21 72
25 75 4 3 15 38 25 78 10 39 23 72 28 72 5 0 7 9 4 20 -3 11 -2 20 3 20 4 0
15 33 25 73 9 39 21 77 25 82 4 6 15 42 25 80 10 39 22 75 26 80 4 6 15 42 25
80 9 39 20 72 23 75 4 3 15 39 25 80 11 41 22 80 26 85 4 6 15 45 24 87 10 43
21 80 26 83 4 3 16 45 26 95 10 49 21 90 25 90 4 0 13 32 20 70 7 39 16 70 21
70 7 0 10 -8 7 -26 0 -4 3 -10 8 -13 5 -3 18 -43 28 -88 10 -46 22 -83 26 -83
4 0 15 -34 25 -75 10 -41 21 -75 24 -75 4 0 15 -30 25 -67 10 -38 21 -72 25
-78 4 -5 16 -39 26 -75 10 -36 20 -67 24 -70 3 -3 14 -32 24 -65 10 -33 24
-73 31 -90 8 -16 20 -50 29 -75 21 -65 55 -163 63 -180 3 -8 5 -21 4 -27 -1
-7 2 -13 7 -13 5 0 17 -29 27 -65 9 -36 20 -65 24 -65 4 0 15 -32 26 -70 11
-39 22 -70 26 -70 3 0 14 -28 24 -62 9 -35 21 -68 26 -74 5 -6 16 -36 25 -65
9 -30 20 -58 24 -64 4 -5 16 -37 25 -70 10 -33 22 -66 27 -72 6 -7 7 -13 2
-13 -5 0 -4 -4 2 -8 6 -4 16 -29 23 -56 7 -28 21 -69 32 -93 10 -23 24 -65 31
-93 6 -27 14 -50 18 -50 4 0 15 -34 25 -75 11 -41 22 -75 26 -75 4 0 15 -32
24 -70 9 -39 21 -72 25 -75 5 -3 16 -40 26 -83 9 -42 20 -79 23 -82 4 -3 15
-39 25 -80 10 -41 20 -82 23 -90 4 -8 5 -23 4 -34 -2 -10 2 -22 8 -25 5 -4 15
-49 22 -101 12 -91 14 -96 53 -132 l40 -38 211 0 c187 0 212 2 227 17 10 10
26 27 38 37 11 11 20 27 20 37 0 10 4 20 9 23 4 3 11 29 15 58 4 29 18 85 31
123 12 39 28 92 35 120 6 27 15 54 20 60 4 5 16 43 26 82 10 40 22 73 25 73 4
0 15 34 25 75 10 41 21 75 25 75 4 0 12 24 19 53 7 28 19 63 27 75 8 13 12 26
9 29 -3 4 -2 11 3 17 5 6 17 38 26 71 10 33 21 67 26 75 4 8 16 40 25 70 9 30
20 60 24 65 4 6 15 37 25 70 9 33 20 62 24 65 4 3 15 35 25 73 10 37 21 67 25
67 4 0 13 24 20 53 8 28 20 63 27 77 13 23 39 96 85 234 11 33 23 64 28 70 5
6 17 39 26 74 10 34 21 62 24 62 4 0 13 24 20 53 7 28 19 61 26 72 6 11 20 47
30 80 10 33 21 62 25 65 3 3 15 34 25 70 10 36 22 67 26 70 3 3 14 32 24 65 9
33 22 66 27 73 6 6 7 12 3 12 -4 0 -3 6 2 13 5 6 18 39 28 72 10 33 21 65 25
70 4 6 16 38 25 73 10 34 21 62 25 62 3 0 12 23 18 51 7 28 19 65 26 83 8 17
22 59 32 94 9 34 20 62 23 62 4 0 16 33 26 73 10 39 21 74 25 77 3 3 14 34 24
70 9 36 20 72 23 80 8 19 6 13 27 85 9 33 25 83 35 110 10 28 24 83 31 123 7
39 17 72 22 72 4 0 8 29 8 65 0 63 -1 66 -41 105 l-41 40 -287 0 -286 0 -48
-45 c-36 -35 -47 -53 -47 -77 0 -46 -31 -242 -39 -248 -4 -3 -15 -49 -25 -102
-10 -53 -21 -98 -25 -100 -4 -2 -15 -41 -24 -87 -9 -47 -21 -87 -25 -90 -5 -3
-17 -45 -27 -93 -10 -49 -21 -88 -25 -88 -3 0 -14 -38 -25 -85 -10 -47 -23
-85 -28 -85 -5 0 -7 -9 -4 -20 3 -11 2 -20 -2 -20 -4 0 -15 -35 -25 -77 -10
-43 -22 -82 -26 -88 -3 -5 -15 -41 -25 -80 -10 -38 -21 -72 -24 -75 -4 -3 -15
-40 -25 -82 -11 -43 -22 -78 -26 -78 -3 0 -15 -35 -25 -77 -9 -43 -21 -80 -24
-83 -4 -3 -15 -36 -26 -75 -10 -38 -21 -74 -25 -80 -4 -5 -15 -41 -25 -80 -10
-38 -22 -75 -27 -81 -5 -7 -8 -16 -7 -20 1 -5 0 -16 -4 -24 -3 -8 -13 -42 -22
-75 -9 -33 -20 -69 -25 -80 -5 -11 -16 -51 -25 -89 -9 -38 -19 -74 -24 -80 -5
-6 -17 -47 -26 -91 -10 -44 -21 -82 -24 -85 -4 -3 -16 -43 -26 -90 -10 -47
-22 -90 -26 -95 -4 -6 -15 -52 -25 -102 -10 -51 -20 -91 -22 -88 -2 2 -14 43
-27 92 -29 109 -64 233 -72 253 -3 8 -5 21 -4 28 1 6 -2 12 -7 12 -4 0 -16 35
-26 78 -10 42 -22 82 -26 87 -5 6 -16 39 -25 75 -9 36 -22 79 -29 95 -8 17
-20 56 -27 88 -7 31 -15 57 -20 57 -4 0 -15 32 -24 72 -10 39 -24 83 -31 97
-8 14 -19 51 -26 81 -6 30 -15 57 -19 60 -4 3 -15 34 -24 70 -9 35 -22 76 -29
90 -7 14 -21 58 -31 98 -11 39 -22 72 -25 72 -4 0 -15 36 -25 80 -10 44 -21
80 -25 80 -3 0 -15 35 -25 78 -10 42 -22 79 -26 82 -4 3 -15 37 -24 75 -10 39
-21 75 -26 81 -5 6 -16 42 -25 80 -8 38 -19 73 -24 79 -4 5 -18 53 -31 105
-13 52 -26 97 -30 100 -3 3 -14 39 -23 80 -9 41 -23 89 -30 105 -8 17 -20 62
-27 100 -7 39 -16 72 -20 75 -4 3 -15 55 -26 115 -17 106 -19 111 -60 153
l-42 42 -278 0 -278 0 -36 -38 c-36 -37 -66 -103 -55 -121 4 -5 3 -11 -1 -13
-5 -1 -16 -43 -26 -91 -10 -49 -22 -96 -27 -105 -4 -9 -16 -48 -26 -87 -9 -38
-20 -74 -24 -80 -4 -5 -15 -45 -24 -87 -10 -43 -21 -80 -26 -83 -5 -3 -14 -31
-20 -63 -7 -31 -20 -75 -30 -97 -10 -22 -23 -66 -30 -97 -6 -32 -15 -58 -19
-58 -3 0 -17 -43 -30 -95 -14 -52 -28 -95 -33 -95 -4 0 -8 -9 -8 -20 0 -19
-23 -97 -40 -135 -5 -11 -17 -49 -26 -85 -10 -36 -20 -67 -24 -70 -3 -3 -15
-36 -25 -75 -10 -38 -21 -72 -25 -75 -3 -3 -14 -36 -25 -75 -10 -38 -21 -74
-25 -80 -4 -5 -15 -41 -25 -80 -11 -38 -22 -72 -25 -75 -4 -3 -17 -45 -30 -95
-13 -49 -26 -94 -30 -100 -4 -5 -15 -41 -25 -80 -10 -38 -21 -74 -25 -80 -4
-5 -15 -44 -25 -85 -10 -41 -21 -77 -25 -80 -3 -3 -14 -41 -24 -84 -9 -44 -21
-85 -25 -90 -5 -6 -17 -51 -27 -101 -9 -49 -20 -92 -24 -95 -4 -3 -10 -26 -14
-52 -4 -27 -10 -48 -14 -48 -4 0 -9 -32 -11 -72 -1 -39 -8 -80 -15 -90 -12
-17 -15 -15 -25 27 -6 25 -15 45 -19 45 -4 0 -18 34 -31 75 -14 41 -28 75 -32
75 -4 0 -15 25 -24 55 -8 30 -19 55 -23 55 -5 0 -16 25 -26 55 -9 30 -20 55
-25 55 -4 0 -15 22 -25 50 -10 28 -21 50 -25 50 -3 0 -14 20 -24 45 -11 25
-22 45 -26 45 -4 0 -16 19 -26 43 -10 23 -27 48 -37 55 -10 7 -18 18 -18 24 0
6 -9 20 -20 32 -153 158 -183 186 -218 205 -11 6 -27 18 -36 26 -8 8 -25 19
-38 24 -22 9 -22 9 -3 17 11 4 22 11 25 14 3 4 24 17 48 29 23 12 42 26 42 31
0 5 9 12 20 15 11 4 37 22 58 41 20 19 40 34 43 34 9 0 119 110 119 119 0 3
16 24 35 46 20 22 38 48 41 58 3 9 9 17 13 17 4 0 16 19 27 43 10 23 24 47 30
54 6 7 18 32 25 57 7 26 16 46 20 46 3 0 14 35 24 78 10 42 21 82 26 87 11 15
29 193 29 297 0 101 -16 256 -29 273 -4 5 -16 40 -25 78 -10 37 -22 67 -27 67
-5 0 -9 6 -9 14 0 13 -29 75 -40 86 -3 3 -25 32 -50 65 -45 60 -138 155 -151
155 -4 0 -14 6 -21 13 -30 27 -106 74 -148 91 -25 10 -49 21 -55 26 -5 4 -35
15 -65 25 -30 10 -60 21 -65 26 -6 4 -51 16 -100 25 -50 10 -92 21 -95 25 -3
3 -33 10 -67 14 -35 4 -63 11 -63 16 0 8 -245 9 -1280 2z m895 -583 c66 -5
129 -14 140 -19 11 -5 57 -17 103 -27 45 -9 82 -20 82 -24 0 -4 18 -12 40 -19
21 -6 45 -18 53 -25 7 -7 27 -21 45 -30 37 -19 145 -126 127 -126 -3 0 3 -10
15 -22 11 -12 20 -28 20 -35 0 -8 9 -31 20 -53 25 -49 43 -202 35 -295 -8 -93
-24 -175 -35 -175 -5 0 -11 -13 -15 -30 -3 -16 -15 -41 -26 -55 -11 -14 -18
-25 -15 -25 7 0 -100 -107 -132 -132 -32 -26 -181 -95 -222 -103 -19 -4 -37
-11 -40 -16 -6 -9 -171 -39 -217 -39 -17 0 -33 -5 -35 -12 -3 -9 -83 -13 -306
-16 l-302 -4 -1 413 c-1 228 -4 514 -8 637 l-6 222 35 1 c19 1 87 5 150 9 180
10 364 11 495 0z"/>
</g>
</svg>
